<svg xmlns="http://www.w3.org/2000/svg" width="100" height="100" viewBox="0 0 100 100">
  <path d="M2.4 40.6l46.8 17.2h1.6l46.8-17.2c1-.3 1.5-1.2 1.5-2 0-1 0-2-1-2.3L51 19h-2L2.4 36.4c-1 .3-1.5 1.2-1.5 2.2 0 1 0 1.7 1 2zm57 9.3L50 53l-9.3-3 9.3-3.5 9.3 3.4zM75 44l-9.3 3.4-15-5.4h-1.5l-15 5.4L25 44l25-9 25 9.2zM9.3 38.5l40.7-15 40.7 15-9.3 3.4-30.6-12h-1.6L18.6 42l-9.3-3.5z"/>
  <path d="M2.4 53l46.8 17.3h1.6L97.6 53c1.2-.3 1.8-1.6 1.4-2.7-.2-.6-.6-1-1.2-1.3-.4-.2-1-.2-1.6 0L50 65.7l-46.2-17H2.2c-.6.4-1 .8-1.2 1.4-.4 1.8.2 3 1.4 3z"/>
  <path d="M97.8 60.8c-.4-.3-1-.3-1.6 0L50 77.8l-46.2-17c-.6-.4-1.2-.4-1.6 0-.6.2-1 .6-1.2 1-.4 1.3.2 2.6 1.4 3l46.8 17h1.6l46.8-17c1.2-.4 1.8-2 1.4-3-.2-.4-.6-1-1.2-1z"/>
</svg>
