<svg xmlns="http://www.w3.org/2000/svg" width="100" height="100" viewBox="0 0 100 100">
  <path d="M90 45h10C97.4 20 76 0 50 0 22.4 0 0 22.4 0 50s22.4 50 50 50c26 0 47.4-19.8 50-45H90c-2 19.6-19 34.7-39.4 34.7s-37.5-15-39.8-35H25s-.3-1.4-.3-2.2v-5.2c0-.8.3-1.6.3-2.3H10.7C13 25.4 30 10.3 50.5 10.3c20.3 0 37.3 15 39.6 35M16 41h10c3.7-9.8 13-16.5 24.3-16.5 12.5 0 23 8.8 25.5 20.8h10C83.4 28 68.3 14.6 50.4 14.6c-16.4-.3-31 11-34.8 26.4M86 55H75.7C73.4 66.6 63 75.7 50.3 75.7c-11 0-20.6-6.8-24.3-16.4H15.4C19.4 74.3 33.6 86 50 86c18.5 0 33.3-13.6 36-31"/>
</svg>
