<svg xmlns="http://www.w3.org/2000/svg" width="100" height="100" viewBox="0 0 100 100">
  <path d="M33.063 30v11.76h21.845v4.81H27.49v-8.263H8.862v3.452H24.04v4.81H3.452V33.45H27.49V30H.002v20.02H24.04v6.892h3.45V50.02h30.868V38.306H36.513V33.45H64.28v16.57h9.354l6.962-14.32v14.32h9.352l9.71-19.976h-3.865L87.42 46.57h-3.374V30.043H79.48L71.104 46.57H67.73V30H33.06zM8.353 64.538v2.175h.69v-2.905H6.307v.73H8.35zm-4.932 0v2.175h-.69v-2.905h2.74v.73H3.43zm4.94 2.95v2.173H6.31v.74h2.734v-2.91h-.69zm-5.62 0v2.905h2.73v-.732H3.43v-2.17h-.7zm10.67-2.768h.5v5.046h-.5V64.72zm2.976 5.046h-.5V64.72h.794l1.89 3.97h.012v-3.97h.5v5.046h-.5L16.4 65.178h-.01v4.588zm6.105 0h-.46l-1.36-5.046h.51l1.07 4.104h.014l1.13-4.104h.49l-1.403 5.046zm5.57-4.594h-2.08v1.72h1.48v.455h-1.48v1.963h2.22v.456h-2.716V64.72h2.574v.452zm2.54 4.594h-.492V64.72h.79l1.89 3.97h.015v-3.97h.498v5.046h-.495l-2.19-4.588H30.6v4.588zm7.445-4.594h-1.28v4.594h-.5v-4.594H34.99v-.452h3.05v.452zm1.696-.452h.5v5.046h-.5V64.72zm3.916 5.046h-.468l-1.35-5.046h.51l1.07 4.104h.01l1.135-4.104h.49l-1.4 5.046zm8.497-2.93V64.72h.5v5.046h-.5v-2.473h-2.03v2.473h-.493V64.72h.493v2.117h2.03zm5.048-1.664h-2.075v1.72h1.49v.455h-1.49v1.963h2.217v.456h-2.71V64.72h2.578v.452zm3.356-.118h-.02L59.92 67.7h1.294l-.66-2.65zm1.723 4.712h-.51l-.436-1.61H59.79l-.408 1.61h-.51L60.2 64.72h.712l1.362 5.046zm2.092-.456h2.03v.456h-2.52V64.72h.498v4.59zm5.767-4.138h-1.28v4.594h-.497v-4.594h-1.28v-.452h3.057v.452zm4.215 1.665V64.72h.505v5.046h-.505v-2.473h-2.02v2.473h-.5V64.72h.5v2.117h2.02zM0 60.372h99.992v.532H0v-.532z"/>
</svg>
