<svg xmlns="http://www.w3.org/2000/svg" width="100" height="100" viewBox="0 0 100 100">
  <path d="M98.74 32.097H39.475l-1.5 4.868c1.052-.42 2.184-.63 3.316-.63 2.29.025 4.5.946 6.11 2.55l-2.24 2.635c-1-1.21-2.47-1.974-3.81-1.974-2.42 0-4.23 1.895-4.23 4.395 0 2.53 1.82 4.45 4.24 4.45 1.29 0 2.77-.68 3.82-1.76L47.43 49c-1.63 1.66-4.05 2.76-6.263 2.76-2.867 0-5.29-1.34-6.683-3.42l-.157.53L32.113 56h65.71c1.103 0 2-.896 2-2V33.18c.024-.58-.476-1.08-1.08-1.08zM56.133 51.755c-4.685 0-8.21-3.316-8.21-7.763 0-4.395 3.525-7.658 8.21-7.658 4.71 0 8.21 3.29 8.21 7.658.027 4.42-3.5 7.763-8.21 7.763zm.08-12.184c-2.343 0-4.29 1.93-4.29 4.48 0 2.56 1.973 4.5 4.29 4.5 2.34 0 4.21-1.97 4.21-4.5 0-2.52-1.896-4.47-4.21-4.47zM72.79 51.6h-6.37V36.465h6.527c4.79 0 8.078 3.08 8.078 7.553 0 4.474-3.342 7.58-8.236 7.58zm.052-12.053h-2.58v8.974h2.764c2.37 0 4.053-1.81 4.053-4.47s-1.77-4.5-4.24-4.5zM95.184 51.6h-12.13V36.465h11.893v3.027H86.92v3h7.237v3.026H86.92v3.053h8.263v3.03zM7.19 61.044l-.552.685c-.632-.64-1.474-1-2.37-1-1.736-.06-3.183 1.34-3.236 3.05-.052 1.71 1.342 3.18 3.08 3.21h.157c.86 0 1.71-.34 2.36-.95l.55.63c-.79.76-1.87 1.21-2.98 1.21-2.23.03-4.1-1.74-4.13-3.97v-.06c0-2.24 1.87-4 4.16-4 1.1.02 2.16.42 2.95 1.18zm11.37 2.816c-.028 2.237-1.87 4.053-4.133 4.027h-.053c-2.342 0-4.184-1.79-4.184-4.027 0-2.263 1.87-4 4.184-4 2.316.027 4.185 1.763 4.185 4zm-7.45 0c-.05 1.79 1.343 3.29 3.16 3.342 1.815.053 3.315-1.342 3.368-3.13.052-1.79-1.342-3.29-3.158-3.343h-.106c-1.79-.03-3.236 1.39-3.263 3.13zm17.107 4l-4.79-6.394v6.394h-.92v-7.973h.946l4.79 6.394v-6.39h.895v7.98h-.92zm6.552-7.08v2.79h3.73v.87h-3.73v3.42h-.93v-7.973h5.08v.868l-4.16.026zm8.71 0v2.607h4.02v.868h-4.02v2.737h4.65v.868h-5.58v-7.973h5.42v.868l-4.5.026zm12.39 4.554c-.19.026-.34.026-.53.026h-2.13v2.527h-.92v-7.974h3.02c2 0 3.16.974 3.16 2.684 0 1.316-.64 2.21-1.79 2.58l1.87 2.71h-1.03l-1.66-2.553zm-.53-.868c1.45 0 2.26-.632 2.26-1.87 0-1.21-.82-1.815-2.27-1.815H53.2v3.69h2.13zm8.39-3.685v2.61h4.02v.87h-4.02V67h4.66v.868h-5.58V59.89h5.42v.868l-4.5.026zm14.52 7.08l-4.79-6.39v6.4h-.92v-7.98h.94l4.79 6.4v-6.4h.89v7.98h-.92zm12-6.81l-.56.69c-.63-.63-1.476-1-2.37-1-1.738-.05-3.185 1.34-3.238 3.05-.05 1.74 1.342 3.19 3.08 3.22h.157c.87 0 1.71-.34 2.37-.95l.55.63c-.79.77-1.868 1.21-2.97 1.21-2.24.03-4.11-1.73-4.135-3.97v-.05c0-2.23 1.87-4 4.16-4 1.104.03 2.16.45 2.946 1.19zm4.84-.26v2.61h4.03v.87H95.1V67h4.66v.868h-5.58V59.89h5.42v.867l-4.5.026zM10.5 35.99h4.6v16.13h-4.16l-6.25-8.33v8.324H.09V35.98h4.17l6.252 8.346V35.98zm23.05 8.05c0 4.69-3.77 8.26-8.71 8.26-4.96 0-8.71-3.54-8.71-8.26 0-4.67 3.747-8.155 8.706-8.155 4.953-.03 8.71 3.48 8.71 8.157zm-12.476 0c0 2.24 1.712 4 3.79 4 2.067 0 3.712-1.75 3.712-4 0-2.26-1.63-3.974-3.71-3.974-2.095 0-3.795 1.75-3.795 3.975z"/>
</svg>
