<svg xmlns="http://www.w3.org/2000/svg" width="100" height="100" viewBox="0 0 100 100">
  <path d="M3.015 49.4h1.56c.793 0 1.398-.168 1.815-.503.417-.335.625-.83.625-1.487 0-.656-.208-1.114-.625-1.374-.417-.26-1.022-.39-1.816-.39h-1.56V49.4zm4.226 7.22L4.68 51.8H3.015v4.82H0V43.247h4.82c.712 0 1.378.07 2 .205.623.138 1.166.367 1.63.688.466.322.835.75 1.11 1.283.272.534.41 1.197.41 1.99 0 .985-.216 1.795-.647 2.43-.43.637-1.008 1.112-1.733 1.427l3.036 5.354H7.24zm10.86-5.538l-.3-1.23c-.19-.67-.37-1.382-.55-2.134-.17-.752-.35-1.477-.53-2.174h-.08l-.5 2.184c-.17.746-.35 1.453-.54 2.123l-.33 1.24h2.85zm.62 2.36h-4.09l-.82 3.18h-3.08l4.19-13.376h3.63l4.18 13.374h-3.2l-.82-3.18zm4.64 1.353l5.91-9.005H23.9v-2.544h9.066v1.826l-5.908 9.005h5.97v2.544h-9.682V54.8zm10.89 0l5.91-9.005H34.8v-2.544h9.065v1.826l-5.907 9.005h5.963v2.544h-9.69V54.8zm10.65-11.55H48l.924 6.258c.083.697.17 1.398.267 2.102s.19 1.412.27 2.123h.09c.14-.71.27-1.42.4-2.123.13-.704.27-1.405.4-2.102l1.44-6.257h2.57l1.433 6.257c.14.683.27 1.377.4 2.082.13.704.264 1.418.4 2.143h.083l.275-2.133c.09-.698.18-1.395.28-2.092l.92-6.257h2.89l-2.4 13.374h-3.8l-1.31-6.07c-.11-.52-.21-1.04-.297-1.57-.08-.52-.16-1.03-.23-1.53h-.08l-.25 1.53c-.09.53-.19 1.05-.29 1.57l-1.26 6.07h-3.74L44.9 43.25zm23.4 13.622c-.9 0-1.72-.16-2.47-.482-.74-.322-1.38-.783-1.91-1.385s-.95-1.333-1.24-2.195c-.3-.86-.45-1.84-.45-2.933 0-1.094.15-2.07.44-2.923.3-.86.71-1.58 1.24-2.16.54-.58 1.17-1.03 1.92-1.34.75-.31 1.57-.46 2.48-.46.91 0 1.73.15 2.47.46.75.3 1.39.75 1.92 1.34.54.59.95 1.31 1.24 2.16.3.85.45 1.82.45 2.9 0 1.09-.15 2.07-.442 2.93-.296.86-.71 1.59-1.24 2.19s-1.176 1.06-1.92 1.38c-.746.32-1.57.48-2.47.48zm0-2.605c.92 0 1.64-.394 2.18-1.18.54-.786.8-1.856.8-3.21 0-1.34-.26-2.387-.8-3.14-.53-.75-1.26-1.127-2.17-1.127-.92 0-1.64.376-2.18 1.128-.53.752-.8 1.8-.8 3.14 0 1.353.27 2.423.8 3.21.54.785 1.26 1.18 2.18 1.18zM79.9 49.4h1.56c.792 0 1.397-.168 1.814-.503.417-.335.625-.83.625-1.487 0-.656-.21-1.114-.63-1.374-.42-.26-1.02-.39-1.82-.39h-1.56V49.4zm4.225 7.22L81.56 51.8h-1.663v4.82h-3.015V43.247h4.82c.712 0 1.378.07 2 .205.623.138 1.166.367 1.63.688.466.322.836.75 1.11 1.283.273.534.41 1.197.41 1.99 0 .985-.216 1.795-.647 2.43-.43.637-1.008 1.112-1.733 1.427l3.036 5.354h-3.385zm5.395-13.374h3.772c1.026 0 1.95.13 2.77.39.82.26 1.524.66 2.112 1.2.588.54 1.04 1.227 1.354 2.06.314.836.47 1.827.47 2.976 0 1.15-.156 2.147-.47 2.995-.315.848-.76 1.548-1.334 2.102-.574.55-1.262.96-2.062 1.24-.8.27-1.692.41-2.677.41H89.52V43.24zm3.59 10.933c.572 0 1.092-.08 1.56-.23.462-.15.86-.4 1.186-.73.33-.34.585-.78.77-1.33.184-.55.277-1.23.277-2.03 0-.8-.093-1.46-.277-2-.185-.54-.44-.97-.77-1.3-.328-.32-.724-.55-1.19-.69-.464-.14-.984-.21-1.558-.21h-.576v8.49h.575z"/>
</svg>
